<svg width="56" height="56" viewBox="0 0 56 56" fill="none" xmlns="http://www.w3.org/2000/svg">
<path d="M46 0C51.5228 0 56 4.47715 56 10V46C56 51.5228 51.5228 56 46 56H10C4.47715 56 1.28855e-07 51.5228 0 46V10C0 4.47715 4.47715 1.28851e-07 10 0H46ZM26.7842 11.6768C24.2222 11.6768 22.3502 12.2211 21.3037 13.6973C20.8075 14.3973 20.6026 15.1723 20.5088 15.873C20.4319 16.4477 20.4214 17.0537 20.4199 17.6064H20.3984C16.987 17.6065 14.5521 18.3732 13.1025 20.0537C11.6641 21.7215 11.5467 23.8896 11.7617 25.8154L11.7607 25.8164L12.9004 37.6758C12.901 37.6824 12.9016 37.6897 12.9023 37.6963C13.0735 39.2515 13.4834 41.0469 14.9873 42.3867C16.469 43.7065 18.7173 44.3242 21.9189 44.3242H34.0811C37.2828 44.3242 39.531 43.7067 41.0127 42.3867C42.5166 41.0469 42.9265 39.2515 43.0977 37.6963C43.0984 37.6896 43.099 37.6825 43.0996 37.6758L44.2393 25.8164L44.2383 25.8154C44.4541 23.8895 44.3367 21.7213 42.8984 20.0537C41.4487 18.3733 39.0129 17.6065 35.6016 17.6064H35.5801C35.5786 17.0537 35.5681 16.4476 35.4912 15.873C35.3974 15.1724 35.1924 14.3972 34.6963 13.6973C33.6498 12.2211 31.7776 11.6768 29.2158 11.6768H26.7842ZM15.0752 28.9463C17.6633 30.2624 20.4525 31.1491 23.334 31.5664C23.5364 32.4277 23.9737 33.2245 24.6094 33.8604C25.5084 34.7594 26.7285 35.2646 28 35.2646C29.2713 35.2646 30.4907 34.7593 31.3896 33.8604C32.0225 33.2274 32.4585 32.4349 32.6621 31.5781C35.5421 31.1698 38.3306 30.2924 40.9199 28.9863L40.1152 37.3682C39.9668 38.7161 39.6684 39.5665 39.0176 40.1465C38.3442 40.7464 36.9893 41.3242 34.0811 41.3242H21.9189C19.011 41.3242 17.6559 40.7463 16.9824 40.1465C16.4129 39.639 16.1127 38.9244 15.9473 37.8506L15.8848 37.3682L15.0752 28.9463ZM28 28.6758C28.4756 28.6759 28.9322 28.865 29.2686 29.2012C29.6048 29.5374 29.7937 29.9942 29.7939 30.4697C29.7939 30.9455 29.6049 31.4028 29.2686 31.7393C28.9322 32.0756 28.4757 32.2646 28 32.2646C27.5244 32.2646 27.0679 32.0755 26.7314 31.7393C26.3951 31.4028 26.2051 30.9454 26.2051 30.4697C26.2053 29.9942 26.3952 29.5374 26.7314 29.2012C27.0678 28.8651 27.5245 28.6758 28 28.6758ZM35.6016 20.6064C38.6805 20.6065 40.0242 21.3141 40.627 22.0127C41.2165 22.6963 41.4333 23.7566 41.2695 25.3604C38.5601 27.0201 35.5455 28.1153 32.4053 28.583C32.1673 28.0275 31.8252 27.5157 31.3896 27.0801C30.4907 26.1813 29.2712 25.6759 28 25.6758C26.7286 25.6758 25.5084 26.1811 24.6094 27.0801C24.1765 27.5129 23.8355 28.0208 23.5977 28.5723C20.4519 28.0938 17.4343 26.9847 14.7246 25.3096C14.5713 23.7339 14.7906 22.6891 15.374 22.0127C15.9766 21.3142 17.3194 20.6065 20.3984 20.6064H35.6016ZM29.2158 14.6768C31.5176 14.6768 32.0789 15.1919 32.249 15.4316C32.3608 15.5895 32.4604 15.8372 32.5186 16.2715C32.5691 16.6492 32.5763 17.0762 32.5781 17.6064H23.4219C23.4237 17.0762 23.4309 16.6493 23.4814 16.2715C23.5396 15.8369 23.6391 15.5895 23.751 15.4316C23.9211 15.1919 24.4821 14.6768 26.7842 14.6768H29.2158Z" fill="white"/>
</svg>
