<svg width="56" height="56" viewBox="0 0 56 56" fill="none" xmlns="http://www.w3.org/2000/svg">
<path d="M28 0C43.464 0 56 12.536 56 28C56 43.464 43.464 56 28 56C12.536 56 0 43.464 0 28C0 12.536 12.536 0 28 0ZM51.5908 31.1569C45.6952 33.0062 41.4001 35.8057 38.0639 39.3668C34.9163 42.7266 32.5499 46.8405 30.5259 51.666C41.4415 50.5145 50.1556 41.9854 51.5908 31.1569ZM4.40849 31.1569C5.84359 41.9852 14.5581 50.5142 25.4734 51.666C23.4494 46.8406 21.0836 42.7265 17.9361 39.3668C14.5998 35.8056 10.3044 33.0062 4.40849 31.1569ZM27.7054 13.7758C25.6547 13.8214 23.6391 14.3318 21.8121 15.2722C19.8633 16.2752 18.1877 17.737 16.9285 19.531L16.6975 19.87C15.5704 21.5839 14.8465 23.5334 14.5831 25.5712C14.322 27.5913 14.5213 29.6424 15.1621 31.5718C17.3501 33.014 19.2812 34.6595 21.0014 36.4957C23.8785 39.5668 26.1209 43.1217 28 47.036C29.8791 43.1217 32.1215 39.5668 34.9986 36.4957C36.7228 34.6553 38.6586 33.0061 40.8529 31.5615C41.4245 29.836 41.6437 28.0122 41.4948 26.1988L41.4552 25.79C41.225 23.7483 40.5327 21.7871 39.4338 20.0553L39.2082 19.7114C38.0551 18.0107 36.5313 16.5962 34.7533 15.5736L34.3944 15.3747C32.4622 14.3403 30.3078 13.7902 28.1162 13.7724L27.7054 13.7758ZM27.65 18.9C32.0959 18.9 35.7 22.5041 35.7 26.95C35.7 31.3959 32.0959 35 27.65 35C23.2041 35 19.6 31.3959 19.6 26.95C19.6 22.5041 23.2041 18.9 27.65 18.9ZM27.65 23.0173C25.478 23.0173 23.7173 24.778 23.7173 26.95C23.7173 29.122 25.478 30.8827 27.65 30.8827C29.822 30.8827 31.5827 29.122 31.5827 26.95C31.5827 24.778 29.822 23.0173 27.65 23.0173ZM28 4.2C15.2833 4.2 4.896 14.1735 4.2335 26.7251C6.39306 27.3278 8.38544 28.0458 10.2286 28.8736C10.1316 27.7729 10.1354 26.6626 10.2444 25.5569L10.3052 25.0181C10.6525 22.3309 11.6068 19.7601 13.0929 17.5L13.3971 17.0523C15.0576 14.6866 17.268 12.7592 19.8379 11.4365C22.2472 10.1964 24.9053 9.52238 27.6097 9.46232L28.1511 9.45889C31.0412 9.48234 33.8827 10.207 36.4307 11.5712C38.9788 12.9355 41.1574 14.8991 42.7793 17.2915C44.401 19.6838 45.4181 22.434 45.742 25.306C45.8758 26.493 45.8875 27.6859 45.7837 28.8675C47.6232 28.0421 49.6114 27.3264 51.7658 26.7251C51.1033 14.1735 40.7167 4.2 28 4.2Z" fill="black"/>
</svg>
