<svg width="516" height="142" viewBox="0 0 516 142" fill="none" xmlns="http://www.w3.org/2000/svg">
<path d="M71 0C110.212 0 142 31.7878 142 71C142 110.212 110.212 142 71 142C31.7878 142 0 110.212 0 71C0 31.7878 31.7878 0 71 0ZM130.82 79.0049C115.87 83.6943 104.979 90.793 96.5192 99.823C88.5377 108.342 82.5373 118.774 77.4049 131.01C105.084 128.09 127.18 106.463 130.82 79.0049ZM11.1787 79.0049C14.8177 106.463 36.9152 128.09 64.5933 131.01C59.4609 118.774 53.4621 108.342 45.4808 99.823C37.0208 90.7927 26.1291 83.6943 11.1787 79.0049ZM70.2529 34.9315C65.053 35.047 59.9419 36.3414 55.3094 38.7259C50.3678 41.2693 46.1188 44.976 42.9259 49.525L42.34 50.3846C39.4822 54.7307 37.6465 59.6739 36.9786 64.8413C36.3165 69.9638 36.8218 75.1647 38.4469 80.0569C43.995 83.714 48.8915 87.8865 53.2536 92.5426C60.549 100.33 66.2352 109.344 71 119.27C75.7648 109.344 81.451 100.33 88.7465 92.5426C93.1186 87.8758 98.0272 83.6939 103.591 80.031C105.041 75.6556 105.597 71.0311 105.219 66.4326L105.119 65.396C104.535 60.2188 102.779 55.246 99.9929 50.8545L99.4208 49.9826C96.497 45.67 92.633 42.0831 88.1243 39.4902L87.2143 38.9859C82.3149 36.3628 76.8518 34.968 71.2946 34.9228L70.2529 34.9315ZM70.1125 47.925C81.3861 47.925 90.525 57.0639 90.525 68.3375C90.525 79.6111 81.3861 88.75 70.1125 88.75C58.8389 88.75 49.7 79.6111 49.7 68.3375C49.7 57.0639 58.8389 47.925 70.1125 47.925ZM70.1125 58.3652C64.6049 58.3652 60.1402 62.8299 60.1402 68.3375C60.1402 73.8451 64.6049 78.3098 70.1125 78.3098C75.6201 78.3098 80.0848 73.8451 80.0848 68.3375C80.0848 62.8299 75.6201 58.3652 70.1125 58.3652ZM71 10.65C38.7541 10.65 12.4148 35.9398 10.7349 67.7672C16.211 69.2955 21.2631 71.1161 25.9368 73.2152C25.6908 70.424 25.7006 67.6087 25.9768 64.8049L26.131 63.4389C27.0118 56.6248 29.4315 50.1059 33.1998 44.375L33.9712 43.2397C38.1817 37.2409 43.7868 32.3538 50.3031 28.9998C56.4125 25.8552 63.1527 24.146 70.0103 23.9937L71.383 23.985C78.7117 24.0445 85.9169 25.882 92.3779 29.3413C98.8391 32.8008 104.363 37.7798 108.476 43.8462C112.588 49.9125 115.167 56.8861 115.989 64.1687C116.328 67.1786 116.358 70.2036 116.094 73.1998C120.759 71.1069 125.8 69.2919 131.263 67.7672C129.583 35.9398 103.246 10.65 71 10.65Z" fill="white"/>
<path d="M209.6 107.4C203.867 107.4 198.333 106.7 193 105.3C187.733 103.833 183.433 101.967 180.1 99.7L186.6 85.1C189.733 87.1 193.333 88.7667 197.4 90.1C201.533 91.3667 205.633 92 209.7 92C212.433 92 214.633 91.7667 216.3 91.3C217.967 90.7667 219.167 90.1 219.9 89.3C220.7 88.4333 221.1 87.4333 221.1 86.3C221.1 84.7 220.367 83.4333 218.9 82.5C217.433 81.5667 215.533 80.8 213.2 80.2C210.867 79.6 208.267 79 205.4 78.4C202.6 77.8 199.767 77.0333 196.9 76.1C194.1 75.1667 191.533 73.9667 189.2 72.5C186.867 70.9667 184.967 69 183.5 66.6C182.033 64.1333 181.3 61.0333 181.3 57.3C181.3 53.1 182.433 49.3 184.7 45.9C187.033 42.5 190.5 39.7667 195.1 37.7C199.7 35.6333 205.433 34.6 212.3 34.6C216.9 34.6 221.4 35.1333 225.8 36.2C230.267 37.2 234.233 38.7 237.7 40.7L231.6 55.4C228.267 53.6 224.967 52.2667 221.7 51.4C218.433 50.4667 215.267 50 212.2 50C209.467 50 207.267 50.3 205.6 50.9C203.933 51.4333 202.733 52.1667 202 53.1C201.267 54.0333 200.9 55.1 200.9 56.3C200.9 57.8333 201.6 59.0667 203 60C204.467 60.8667 206.367 61.6 208.7 62.2C211.1 62.7333 213.7 63.3 216.5 63.9C219.367 64.5 222.2 65.2667 225 66.2C227.867 67.0667 230.467 68.2667 232.8 69.8C235.133 71.2667 237 73.2333 238.4 75.7C239.867 78.1 240.6 81.1333 240.6 84.8C240.6 88.8667 239.433 92.6333 237.1 96.1C234.833 99.5 231.4 102.233 226.8 104.3C222.267 106.367 216.533 107.4 209.6 107.4ZM285.046 107.4C279.446 107.4 274.279 106.5 269.546 104.7C264.813 102.9 260.679 100.367 257.146 97.1C253.679 93.7667 250.979 89.9 249.046 85.5C247.113 81.1 246.146 76.2667 246.146 71C246.146 65.7333 247.113 60.9 249.046 56.5C250.979 52.1 253.679 48.2667 257.146 45C260.679 41.6667 264.813 39.1 269.546 37.3C274.279 35.5 279.446 34.6 285.046 34.6C290.713 34.6 295.879 35.5 300.546 37.3C305.279 39.1 309.379 41.6667 312.846 45C316.313 48.2667 319.013 52.1 320.946 56.5C322.946 60.9 323.946 65.7333 323.946 71C323.946 76.2667 322.946 81.1333 320.946 85.6C319.013 90 316.313 93.8333 312.846 97.1C309.379 100.367 305.279 102.9 300.546 104.7C295.879 106.5 290.713 107.4 285.046 107.4ZM285.046 91C287.713 91 290.179 90.5333 292.446 89.6C294.779 88.6667 296.779 87.3333 298.446 85.6C300.179 83.8 301.513 81.6667 302.446 79.2C303.446 76.7333 303.946 74 303.946 71C303.946 67.9333 303.446 65.2 302.446 62.8C301.513 60.3333 300.179 58.2333 298.446 56.5C296.779 54.7 294.779 53.3333 292.446 52.4C290.179 51.4667 287.713 51 285.046 51C282.379 51 279.879 51.4667 277.546 52.4C275.279 53.3333 273.279 54.7 271.546 56.5C269.879 58.2333 268.546 60.3333 267.546 62.8C266.613 65.2 266.146 67.9333 266.146 71C266.146 74 266.613 76.7333 267.546 79.2C268.546 81.6667 269.879 83.8 271.546 85.6C273.279 87.3333 275.279 88.6667 277.546 89.6C279.879 90.5333 282.379 91 285.046 91ZM334.316 106V36H366.316C372.716 36 378.216 37.0333 382.816 39.1C387.483 41.1667 391.083 44.1667 393.616 48.1C396.15 51.9667 397.416 56.5667 397.416 61.9C397.416 67.1667 396.15 71.7333 393.616 75.6C391.083 79.4 387.483 82.3333 382.816 84.4C378.216 86.4 372.716 87.4 366.316 87.4H345.316L354.116 79.1V106H334.316ZM377.616 106L360.216 80.5H381.316L398.816 106H377.616ZM354.116 81.2L345.316 72.1H365.116C369.25 72.1 372.316 71.2 374.316 69.4C376.383 67.6 377.416 65.1 377.416 61.9C377.416 58.6333 376.383 56.1 374.316 54.3C372.316 52.5 369.25 51.6 365.116 51.6H345.316L354.116 42.5V81.2ZM408.34 106V36H428.14V106H408.34ZM442.227 106V36H458.527L497.127 82.6H489.427V36H508.827V106H492.527L453.927 59.4H461.627V106H442.227Z" fill="white"/>
</svg>
