<svg width="142" height="142" viewBox="0 0 142 142" fill="none" xmlns="http://www.w3.org/2000/svg">
<path d="M71 0C110.212 0 142 31.7878 142 71C142 110.212 110.212 142 71 142C31.7878 142 0 110.212 0 71C0 31.7878 31.7878 0 71 0ZM130.82 79.0049C115.87 83.6943 104.979 90.793 96.5192 99.823C88.5377 108.342 82.5373 118.774 77.4049 131.01C105.084 128.09 127.18 106.463 130.82 79.0049ZM11.1787 79.0049C14.8177 106.463 36.9152 128.09 64.5933 131.01C59.4609 118.774 53.4621 108.342 45.4808 99.823C37.0208 90.7927 26.1291 83.6943 11.1787 79.0049ZM70.2529 34.9315C65.053 35.047 59.9419 36.3413 55.3094 38.7259C50.3678 41.2693 46.1188 44.976 42.9259 49.525L42.34 50.3846C39.4822 54.7307 37.6465 59.6739 36.9786 64.8413C36.3165 69.9638 36.8218 75.1647 38.4469 80.0569C43.995 83.714 48.8915 87.8865 53.2536 92.5426C60.549 100.33 66.2352 109.344 71 119.27C75.7648 109.344 81.451 100.33 88.7465 92.5426C93.1186 87.8758 98.0272 83.6939 103.591 80.031C105.041 75.6556 105.597 71.0311 105.219 66.4326L105.119 65.396C104.535 60.2188 102.779 55.246 99.9928 50.8545L99.4208 49.9826C96.497 45.67 92.633 42.0831 88.1243 39.4902L87.2143 38.9859C82.3149 36.3628 76.8518 34.968 71.2946 34.9228L70.2529 34.9315ZM70.1125 47.925C81.3861 47.925 90.525 57.0639 90.525 68.3375C90.525 79.6111 81.3861 88.75 70.1125 88.75C58.8389 88.75 49.7 79.6111 49.7 68.3375C49.7 57.0639 58.8389 47.925 70.1125 47.925ZM70.1125 58.3652C64.6049 58.3652 60.1402 62.8299 60.1402 68.3375C60.1402 73.8451 64.6049 78.3098 70.1125 78.3098C75.6201 78.3098 80.0848 73.8451 80.0848 68.3375C80.0848 62.8299 75.6201 58.3652 70.1125 58.3652ZM71 10.65C38.7541 10.65 12.4148 35.9398 10.7349 67.7672C16.211 69.2955 21.2631 71.1161 25.9368 73.2152C25.6908 70.424 25.7006 67.6087 25.9768 64.8049L26.131 63.4389C27.0118 56.6248 29.4315 50.1059 33.1998 44.375L33.9712 43.2397C38.1817 37.2409 43.7868 32.3538 50.3031 28.9998C56.4125 25.8552 63.1527 24.146 70.0103 23.9937L71.383 23.985C78.7117 24.0445 85.9169 25.882 92.3779 29.3413C98.8391 32.8008 104.363 37.7798 108.476 43.8462C112.588 49.9125 115.167 56.8861 115.989 64.1687C116.328 67.1786 116.358 70.2036 116.094 73.1998C120.759 71.1069 125.8 69.2919 131.263 67.7672C129.583 35.9398 103.246 10.65 71 10.65Z" fill="#111111"/>
</svg>
