<svg width="47" height="47" viewBox="0 0 47 47" fill="none" xmlns="http://www.w3.org/2000/svg">
<path d="M23.4804 0C36.4482 0 46.9608 10.5213 46.9608 23.5C46.9608 36.4786 36.4482 47 23.4804 47C10.5125 47 0 36.4786 0 23.5C0 10.5213 10.5125 0 23.4804 0ZM43.2634 26.1495C38.3193 27.7016 34.7176 30.0512 31.9198 33.04C29.2803 35.8597 27.2959 39.3125 25.5985 43.3625C34.7523 42.396 42.0597 35.2378 43.2634 26.1495ZM3.6969 26.1495C4.90036 35.2378 12.2082 42.396 21.3616 43.3625C19.6643 39.3125 17.6804 35.8597 15.0409 33.04C12.2431 30.0511 8.64115 27.7016 3.6969 26.1495ZM23.2333 11.5618C21.5137 11.6001 19.8234 12.0285 18.2914 12.8177C16.6571 13.6596 15.2519 14.8864 14.196 16.3921L14.0022 16.6766C13.0571 18.1151 12.4501 19.7512 12.2292 21.4616C12.0102 23.157 12.1773 24.8785 12.7148 26.4977C14.5496 27.7082 16.1689 29.0892 17.6115 30.6303C20.0241 33.2078 21.9046 36.1913 23.4804 39.4767C25.0561 36.1913 26.9366 33.2078 29.3493 30.6303C30.7952 29.0857 32.4185 27.7015 34.2585 26.4891C34.7381 25.0409 34.9219 23.5103 34.7969 21.9883L34.7639 21.6452C34.5707 19.9316 33.99 18.2856 33.0686 16.8321L32.8794 16.5435C31.9125 15.1161 30.6346 13.9289 29.1436 13.0707L28.8426 12.9038C27.2223 12.0356 25.4156 11.5739 23.5778 11.559L23.2333 11.5618ZM23.1869 15.8625C26.9152 15.8625 29.9375 18.8873 29.9375 22.6187C29.9375 26.3502 26.9152 29.375 23.1869 29.375C19.4586 29.375 16.4363 26.3502 16.4363 22.6187C16.4363 18.8873 19.4586 15.8625 23.1869 15.8625ZM23.1869 19.3181C21.3655 19.3181 19.8889 20.7958 19.8889 22.6187C19.8889 24.4417 21.3655 25.9194 23.1869 25.9194C25.0083 25.9194 26.4848 24.4417 26.4848 22.6187C26.4848 20.7958 25.0083 19.3181 23.1869 19.3181ZM23.4804 3.525C12.8164 3.525 4.10569 11.8956 3.55014 22.43C5.36113 22.9358 7.03191 23.5384 8.57755 24.2332C8.4962 23.3094 8.49944 22.3775 8.59078 21.4495L8.64177 20.9974C8.93306 18.742 9.73328 16.5843 10.9795 14.6875L11.2346 14.3117C12.6271 12.3262 14.4807 10.7087 16.6357 9.59852C18.6562 8.55771 20.8852 7.99199 23.1531 7.94158L23.607 7.9387C26.0307 7.95839 28.4135 8.56658 30.5503 9.71156C32.687 10.8566 34.5138 12.5046 35.8741 14.5125C37.2339 16.5203 38.0868 18.8285 38.3587 21.2389C38.4708 22.2352 38.4807 23.2364 38.3934 24.2281C39.9362 23.5354 41.6033 22.9346 43.4099 22.43C42.8543 11.8956 34.1444 3.525 23.4804 3.525Z" fill="#1E1E1E"/>
</svg>
